<svg xmlns="http://www.w3.org/2000/svg" width="1200" height="800" viewBox="0 0 1200 800" role="img" aria-labelledby="t d"><title id="t">Default Social</title><desc id="d">AccessPath Guide editorial cover with independent information label</desc><defs><linearGradient id="g" x1="0" x2="1"><stop stop-color="#fbf7ee"/><stop offset="1" stop-color="#edf4f1"/></linearGradient><pattern id="p" width="40" height="40" patternUnits="userSpaceOnUse"><circle cx="4" cy="4" r="2" fill="#b58a38" opacity=".22"/></pattern></defs><rect width="1200" height="800" rx="44" fill="url(#g)"/><rect width="1200" height="800" rx="44" fill="url(#p)"/><circle cx="930" cy="170" r="150" fill="#0a5545" opacity=".13"/><circle cx="220" cy="620" r="180" fill="#17374f" opacity=".09"/><rect x="130" y="130" width="940" height="540" rx="36" fill="#fff" stroke="#dbe3e2" stroke-width="4"/><rect x="185" y="195" width="390" height="330" rx="28" fill="#17374f"/><path d="M245 440 C330 280 420 300 515 225" fill="none" stroke="#b58a38" stroke-width="22" stroke-linecap="round"/><circle cx="245" cy="440" r="30" fill="#0a5545"/><circle cx="380" cy="320" r="30" fill="#0a5545"/><circle cx="515" cy="225" r="30" fill="#0a5545"/><rect x="635" y="210" width="310" height="28" rx="14" fill="#0a5545"/><rect x="635" y="270" width="250" height="20" rx="10" fill="#b9c8c7"/><rect x="635" y="315" width="290" height="20" rx="10" fill="#b9c8c7"/><rect x="635" y="360" width="225" height="20" rx="10" fill="#b9c8c7"/><rect x="635" y="425" width="180" height="54" rx="15" fill="#b58a38"/><text x="185" y="610" font-family="Arial, sans-serif" font-size="42" font-weight="700" fill="#17374f">Default Social</text></svg>