<svg xmlns="http://www.w3.org/2000/svg" width="1200" height="800" viewBox="0 0 1200 800" role="img" aria-labelledby="t d"><title id="t">Independent Lifeline guidance pathway</title><desc id="d">Premium editorial illustration showing official-source research, eligibility verification, provider comparison, and a non-guaranteed device offer.</desc><defs><linearGradient id="bg" x1="0" y1="0" x2="1" y2="1"><stop stop-color="#071827"/><stop offset=".55" stop-color="#103d5d"/><stop offset="1" stop-color="#0c6b57"/></linearGradient><linearGradient id="gold" x1="0" y1="0" x2="1" y2="1"><stop stop-color="#f4dfad"/><stop offset="1" stop-color="#bd914d"/></linearGradient><linearGradient id="paper" x1="0" y1="0" x2="1" y2="1"><stop stop-color="#fffefa"/><stop offset="1" stop-color="#eef5f3"/></linearGradient><filter id="shadow" x="-20%" y="-20%" width="140%" height="150%"><feDropShadow dx="0" dy="20" stdDeviation="22" flood-color="#020a10" flood-opacity=".28"/></filter><pattern id="grid" width="42" height="42" patternUnits="userSpaceOnUse"><path d="M42 0H0V42" fill="none" stroke="#fff" stroke-opacity=".045"/></pattern></defs><rect width="1200" height="800" rx="46" fill="url(#bg)"/><rect width="1200" height="800" rx="46" fill="url(#grid)"/><circle cx="1040" cy="120" r="220" fill="#bd914d" opacity=".13"/><circle cx="75" cy="750" r="280" fill="#fff" opacity=".035"/><path d="M780 0c-60 125-54 250 18 374 73 126 71 268-8 426" fill="none" stroke="#fff" stroke-opacity=".055" stroke-width="90"/><g filter="url(#shadow)"><rect x="96" y="95" width="1008" height="610" rx="36" fill="url(#paper)"/><rect x="96" y="95" width="1008" height="14" rx="7" fill="url(#gold)"/></g><g transform="translate(155 155)"><rect width="415" height="480" rx="30" fill="#071827"/><rect x="25" y="25" width="365" height="430" rx="22" fill="none" stroke="#fff" stroke-opacity=".1"/><text x="45" y="70" fill="#f0d69a" font-family="Arial,sans-serif" font-size="18" font-weight="700" letter-spacing="2">YOUR SAFE PATH</text><path d="M72 374C136 280 158 300 218 218c47-64 72-45 126-132" fill="none" stroke="url(#gold)" stroke-width="15" stroke-linecap="round"/><g fill="#0f8068" stroke="#fff" stroke-width="5"><circle cx="72" cy="374" r="19"/><circle cx="218" cy="218" r="19"/><circle cx="344" cy="86" r="19"/></g><g font-family="Arial,sans-serif" font-size="17" font-weight="700" fill="#fff"><text x="105" y="381">Check eligibility</text><text x="64" y="208">Verify officially</text><text x="198" y="72">Compare providers</text></g><rect x="44" y="412" width="327" height="1" fill="#fff" opacity=".14"/><text x="44" y="440" fill="#a9bdc8" font-family="Arial,sans-serif" font-size="14">Service discount first. Device offer second.</text></g><g transform="translate(625 158)"><rect width="420" height="120" rx="24" fill="#fff" stroke="#dce5e8"/><circle cx="60" cy="60" r="30" fill="#e7f4ef"/><path d="M47 60l9 9 19-22" fill="none" stroke="#0c6b57" stroke-width="7" stroke-linecap="round" stroke-linejoin="round"/><text x="108" y="52" fill="#071827" font-family="Arial,sans-serif" font-size="21" font-weight="800">Official-source research</text><text x="108" y="80" fill="#627383" font-family="Arial,sans-serif" font-size="15">FCC and USAC guidance prioritized</text><rect y="144" width="420" height="120" rx="24" fill="#fff" stroke="#dce5e8"/><circle cx="60" cy="204" r="30" fill="#f4e6c9"/><path d="M49 204h22M60 193v22" stroke="#9f7535" stroke-width="6" stroke-linecap="round"/><text x="108" y="196" fill="#071827" font-family="Arial,sans-serif" font-size="21" font-weight="800">Private preparation</text><text x="108" y="224" fill="#627383" font-family="Arial,sans-serif" font-size="15">No benefit documents collected here</text><rect y="288" width="420" height="120" rx="24" fill="#fff" stroke="#dce5e8"/><circle cx="60" cy="348" r="30" fill="#f9e9e7"/><path d="M60 333v20M60 365h.1" stroke="#a23a37" stroke-width="7" stroke-linecap="round"/><text x="108" y="340" fill="#071827" font-family="Arial,sans-serif" font-size="21" font-weight="800">No tablet guarantee</text><text x="108" y="368" fill="#627383" font-family="Arial,sans-serif" font-size="15">Offers vary by provider and location</text></g><g transform="translate(625 595)"><rect width="420" height="55" rx="27.5" fill="#0c6b57"/><circle cx="30" cy="27.5" r="7" fill="#f0d69a"/><text x="52" y="34" fill="#fff" font-family="Arial,sans-serif" font-size="17" font-weight="800">Independent U.S. consumer guide</text></g></svg>