<svg xmlns="http://www.w3.org/2000/svg" viewBox="0 0 64 64" role="img" aria-labelledby="t"><title id="t">AccessPath Guide mark</title><defs><linearGradient id="b" x1="0" y1="0" x2="1" y2="1"><stop stop-color="#071827"/><stop offset="1" stop-color="#174f78"/></linearGradient><linearGradient id="g" x1="0" y1="0" x2="1" y2="1"><stop stop-color="#f0d69a"/><stop offset="1" stop-color="#bd914d"/></linearGradient></defs><rect width="64" height="64" rx="17" fill="url(#b)"/><rect x="5" y="5" width="54" height="54" rx="13" fill="none" stroke="#fff" stroke-opacity=".12"/><path d="M16 45V22c0-3 2.4-5.5 5.5-5.5H32V47H21.5A5.5 5.5 0 0 1 16 41.5" fill="none" stroke="url(#g)" stroke-width="4"/><path d="M48 45V22c0-3-2.4-5.5-5.5-5.5H32V47h10.5a5.5 5.5 0 0 0 5.5-5.5" fill="none" stroke="url(#g)" stroke-width="4"/><path d="M22 37c5-7 8-3 12-10 4-6 7-3 10-8" fill="none" stroke="#0f8068" stroke-width="4" stroke-linecap="round"/><circle cx="22" cy="37" r="2.8" fill="#fff"/><circle cx="34" cy="27" r="2.8" fill="#fff"/><circle cx="44" cy="19" r="2.8" fill="#fff"/></svg>